<svg xmlns="http://www.w3.org/2000/svg" width="180" height="180" viewBox="0 0 180 180">
  <g fill="#C4161C" fill-rule="evenodd">
    <path fill-opacity=".5" d="M89.9634,179.927 C86.3734,179.927 83.4634,177.017 83.4634,173.427 L83.4634,159.102 C83.4634,155.512 86.3734,152.602 89.9634,152.602 C93.5534,152.602 96.4634,155.512 96.4634,159.102 L96.4634,173.427 C96.4634,177.017 93.5534,179.927 89.9634,179.927"/>
    <path d="M89.9634,27.3245 C86.3734,27.3245 83.4634,24.4145 83.4634,20.8245 L83.4634,6.4995 C83.4634,2.9095 86.3734,-0.0005 89.9634,-0.0005 C93.5534,-0.0005 96.4634,2.9095 96.4634,6.4995 L96.4634,20.8245 C96.4634,24.4145 93.5534,27.3245 89.9634,27.3245"/>
    <path fill-opacity=".1" d="M173.4272,96.4631 L159.1022,96.4631 C155.5122,96.4631 152.6022,93.5531 152.6022,89.9631 C152.6022,86.3731 155.5122,83.4631 159.1022,83.4631 L173.4272,83.4631 C177.0172,83.4631 179.9272,86.3731 179.9272,89.9631 C179.9272,93.5531 177.0172,96.4631 173.4272,96.4631"/>
    <path fill-opacity=".9" d="M20.8247,96.4631 L6.4997,96.4631 C2.9097,96.4631 -0.0003,93.5531 -0.0003,89.9631 C-0.0003,86.3731 2.9097,83.4631 6.4997,83.4631 L20.8247,83.4631 C24.4147,83.4631 27.3247,86.3731 27.3247,89.9631 C27.3247,93.5531 24.4147,96.4631 20.8247,96.4631"/>
    <path d="M63.5078,32.5886 C60.9568,32.5886 58.5368,31.0776 57.4998,28.5746 L52.0178,15.3396 C50.6448,12.0236 52.2188,8.2216 55.5358,6.8476 C58.8508,5.4736 62.6548,7.0476 64.0288,10.3656 L69.5108,23.5996 C70.8838,26.9166 69.3098,30.7186 65.9928,32.0926 C65.1798,32.4296 64.3368,32.5886 63.5078,32.5886"/>
    <path fill-opacity=".4" d="M121.9063,173.5749 C119.3553,173.5749 116.9353,172.0639 115.8983,169.5609 L110.4163,156.3259 C109.0433,153.0099 110.6173,149.2079 113.9343,147.8339 C117.2483,146.4609 121.0523,148.0349 122.4273,151.3519 L127.9093,164.5859 C129.2823,167.9029 127.7083,171.7049 124.3913,173.0789 C123.5783,173.4159 122.7353,173.5749 121.9063,173.5749"/>
    <path d="M153.8418,70.0066 C151.2908,70.0066 148.8708,68.4956 147.8338,65.9926 C146.4608,62.6756 148.0348,58.8736 151.3518,57.4996 L164.5868,52.0176 C167.9008,50.6436 171.7048,52.2186 173.0788,55.5356 C174.4528,58.8526 172.8778,62.6546 169.5608,64.0286 L156.3268,69.5106 C155.5138,69.8476 154.6708,70.0066 153.8418,70.0066"/>
    <path fill-opacity=".8" d="M12.8555,128.405 C10.3045,128.405 7.8845,126.894 6.8475,124.391 C5.4745,121.074 7.0485,117.272 10.3655,115.898 L23.6005,110.416 C26.9135,109.044 30.7185,110.617 32.0925,113.934 C33.4665,117.251 31.8915,121.053 28.5745,122.427 L15.3405,127.909 C14.5275,128.246 13.6845,128.405 12.8555,128.405"/>
    <path d="M41.0747,47.5749 C39.4107,47.5749 37.7477,46.9399 36.4787,45.6709 L26.3497,35.5419 C23.8107,33.0029 23.8107,28.8879 26.3497,26.3489 C28.8877,23.8109 33.0047,23.8119 35.5417,26.3489 L45.6707,36.4789 C48.2097,39.0169 48.2097,43.1329 45.6707,45.6709 C44.4017,46.9399 42.7377,47.5749 41.0747,47.5749"/>
    <path fill-opacity=".3" d="M148.981,155.4812 C147.317,155.4812 145.654,154.8462 144.385,153.5772 L134.256,143.4482 C131.717,140.9092 131.717,136.7942 134.256,134.2552 C136.794,131.7172 140.91,131.7172 143.448,134.2552 L153.577,144.3852 C156.116,146.9232 156.116,151.0392 153.577,153.5772 C152.308,154.8462 150.644,155.4812 148.981,155.4812"/>
    <path d="M138.8521,47.5749 C137.1881,47.5749 135.5251,46.9409 134.2561,45.6709 C131.7171,43.1329 131.7171,39.0169 134.2561,36.4789 L144.3851,26.3489 C146.9231,23.8109 151.0381,23.8099 153.5771,26.3489 C156.1161,28.8879 156.1161,33.0029 153.5771,35.5419 L143.4481,45.6709 C142.1791,46.9399 140.5161,47.5749 138.8521,47.5749"/>
    <path fill-opacity=".7" d="M30.9458,155.4812 C29.2818,155.4812 27.6188,154.8472 26.3498,153.5772 C23.8108,151.0392 23.8108,146.9232 26.3498,144.3852 L36.4788,134.2552 C39.0168,131.7172 43.1318,131.7162 45.6708,134.2552 C48.2098,136.7942 48.2098,140.9092 45.6708,143.4482 L35.5418,153.5772 C34.2728,154.8462 32.6098,155.4812 30.9458,155.4812"/>
    <path d="M26.085,70.0066 C25.256,70.0066 24.414,69.8476 23.6,69.5106 L10.366,64.0286 C7.049,62.6546 5.474,58.8526 6.848,55.5356 C8.222,52.2186 12.025,50.6456 15.34,52.0176 L28.575,57.4996 C31.892,58.8736 33.466,62.6756 32.093,65.9926 C31.056,68.4956 28.635,70.0066 26.085,70.0066"/>
    <path fill-opacity=".2" d="M164.5863,127.909 L151.3523,122.427 C148.0353,121.053 146.4603,117.251 147.8343,113.934 C149.2083,110.617 153.0103,109.044 156.3263,110.416 L169.5613,115.898 C172.8783,117.272 174.4523,121.074 173.0793,124.391 C172.0423,126.894 169.6213,128.405 167.0713,128.405 C166.2423,128.405 165.4003,128.246 164.5863,127.909 Z"/>
    <path d="M116.4194,32.5886 C115.5904,32.5886 114.7484,32.4296 113.9344,32.0926 C110.6174,30.7186 109.0434,26.9166 110.4164,23.5996 L115.8984,10.3656 C117.2734,7.0486 121.0754,5.4746 124.3914,6.8476 C127.7084,8.2216 129.2824,12.0236 127.9094,15.3396 L122.4274,28.5746 C121.3904,31.0776 118.9694,32.5886 116.4194,32.5886"/>
    <path fill-opacity=".6" d="M58.021,173.5749 C57.192,173.5749 56.35,173.4159 55.536,173.0789 C52.219,171.7049 50.645,167.9029 52.018,164.5859 L57.5,151.3519 C58.875,148.0339 62.678,146.4599 65.993,147.8339 C69.31,149.2079 70.884,153.0099 69.511,156.3259 L64.029,169.5609 C62.992,172.0639 60.571,173.5749 58.021,173.5749"/>
  </g>
</svg>
