<svg xmlns="http://www.w3.org/2000/svg" width="24" height="24" viewBox="0 0 24 24">
  <g fill="#324C95" fill-rule="evenodd">
    <path d="M21.34375,12 C21.34375,13.4198125 21.0385625,14.772625 20.4935625,15.9909375 L22.4860625,17.9834375 C23.4551875,16.208125 24,14.1658125 24,12 C24,6.1715 20,1.234125 14.6875,0 L14.6875,2.811125 C18.5625,3.977 21.34375,7.680125 21.34375,12 L21.34375,12 Z"/>
    <polygon points="12 1.029 8.811 4.309 12 7.497"/>
    <path d="M22.302625 20.8053125L1.69475.1973125.19475 1.6973125 5.8509375 7.348125 5.3334375 8 0 8 0 16 5.333375 16 12 22.9714375 12 13.5 17.9321875 19.417875C16.9871875 20.2151875 15.875 20.8258125 14.6875 21.188875L14.6875 24C16.625 23.55175 18.37475 22.6148125 19.8321875 21.3244375L22.3078125 23.80525 23.8078125 22.3025625 22.3076875 20.800125 22.302625 20.8053125 22.302625 20.8053125zM18.01175 12C18.01175 9.6000625 16.6875 7.4745625 14.6875 6.4460625L14.6875 10.1848125 17.8625625 13.359875C17.9596875 12.9211875 18.01175 12.465875 18.01175 12L18.01175 12z"/>
  </g>
</svg>
