<svg xmlns="http://www.w3.org/2000/svg" width="24" height="24" viewBox="0 0 24 24">
  <path fill="#AD2C3D" fill-rule="evenodd" d="M0,8 L0,16 L5.333375,16 L12,22.9714375 L12,1.028625 L5.333375,8 L0,8 L0,8 Z M18,12 C18,9.6000625 16.6666875,7.4745625 14.6666875,6.4460625 L14.6666875,17.4858125 C16.6666875,16.5255 18,14.4 18,12 L18,12 Z M14.6666875,0 L14.6666875,2.811125 C18.5331875,3.977 21.333375,7.680125 21.333375,12 C21.333375,16.3199375 18.5331875,20.0230625 14.6666875,21.188875 L14.6666875,24 C20,22.765875 24,17.8285625 24,12 C24,6.1715 20,1.234125 14.6666875,0 L14.6666875,0 Z"/>
</svg>
