<?xml version="1.0" encoding="utf-8"?>
<!-- Generator: Adobe Illustrator 23.0.4, SVG Export Plug-In . SVG Version: 6.00 Build 0)  -->
<svg version="1.1" id="Layer_1" xmlns="http://www.w3.org/2000/svg" xmlns:xlink="http://www.w3.org/1999/xlink" x="0px" y="0px"
	 viewBox="0 0 17 17" style="enable-background:new 0 0 17 17;" xml:space="preserve">
<style type="text/css">
	.st0{fill:#1423A5;}
</style>
<title>close</title>
<desc>Created with Sketch.</desc>
<g id="Home">
	<g id="portal-zelda-video-mobile" transform="translate(-522.000000, -15.000000)">
		<g id="close" transform="translate(522.000000, 15.000000)">
			<path id="Rectangle" class="st0" d="M0.5,14.4L14.4,0.5c0.6-0.6,1.6-0.6,2.2,0s0.6,1.6,0,2.2l-14,13.8c-0.6,0.6-1.6,0.6-2.2,0
				S-0.2,15,0.5,14.4z"/>
			<path id="Rectangle_1_" class="st0" d="M16.5,14.4L2.6,0.5C2-0.2,1.1-0.2,0.5,0.5c-0.6,0.6-0.6,1.6,0,2.2l13.9,13.9
				c0.6,0.6,1.6,0.6,2.2,0C17.2,15.9,17.2,15,16.5,14.4z"/>
		</g>
	</g>
</g>
</svg>
