<?xml version="1.0" encoding="utf-8"?>
<!-- Generator: Adobe Illustrator 23.0.4, SVG Export Plug-In . SVG Version: 6.00 Build 0)  -->
<svg version="1.1" id="Layer_1" xmlns="http://www.w3.org/2000/svg" xmlns:xlink="http://www.w3.org/1999/xlink" x="0px" y="0px"
	 viewBox="0 0 17 17" style="enable-background:new 0 0 17 17;" xml:space="preserve">
<style type="text/css">
	.st0{fill:#1423A5;}
</style>
<title>burger</title>
<desc>Created with Sketch.</desc>
<g id="Home">
	<g id="portal-zelda-video-mobile" transform="translate(-522.000000, -15.000000)">
		<g id="burger" transform="translate(522.000000, 15.000000)">
			<path id="Rectangle" class="st0" d="M1.5,0h14C16.3,0,17,0.7,17,1.5l0,0C17,2.3,16.3,3,15.5,3h-14C0.7,3,0,2.3,0,1.5l0,0
				C0,0.7,0.7,0,1.5,0z"/>
			<path id="Rectangle_1_" class="st0" d="M1.5,7h14C16.3,7,17,7.7,17,8.5l0,0c0,0.8-0.7,1.5-1.5,1.5h-14C0.7,10,0,9.3,0,8.5l0,0
				C0,7.7,0.7,7,1.5,7z"/>
			<path id="Rectangle_2_" class="st0" d="M1.5,14h14c0.8,0,1.5,0.7,1.5,1.5l0,0c0,0.8-0.7,1.5-1.5,1.5h-14C0.7,17,0,16.3,0,15.5
				l0,0C0,14.7,0.7,14,1.5,14z"/>
		</g>
	</g>
</g>
</svg>
